<?xml version="1.0" standalone="no"?>
<!DOCTYPE svg PUBLIC "-//W3C//DTD SVG 20010904//EN"
 "http://www.w3.org/TR/2001/REC-SVG-20010904/DTD/svg10.dtd">
<svg version="1.0" xmlns="http://www.w3.org/2000/svg"
 width="564.000000pt" height="186.000000pt" viewBox="0 0 564.000000 186.000000"
 preserveAspectRatio="xMidYMid meet">

<g transform="translate(0.000000,180.000000) scale(0.130000,-0.130000)"
fill="yellow" stroke="none">
<path d="M2200 1703 c-76 -4 -192 -24 -260 -45 -67 -20 -489 -238 -510 -263
-17 -21 -8 -50 17 -53 14 -2 101 39 226 106 232 125 284 146 404 167 198 35
413 4 429 -62 11 -43 -55 -117 -191 -214 -55 -40 -140 -89 -287 -168 -109 -57
-105 -61 -54 52 14 32 26 68 26 81 0 27 -24 40 -48 27 -9 -5 -64 -116 -121
-247 -108 -247 -112 -265 -63 -272 19 -3 27 9 57 75 19 43 40 89 47 101 8 15
84 62 207 128 229 123 312 177 398 258 105 97 131 181 78 245 -47 55 -202 92
-355 84z"/>
<path d="M950 1145 c-146 -79 -285 -151 -309 -159 -66 -23 -126 -19 -221 15
-128 45 -183 39 -225 -25 -37 -56 -26 -89 117 -359 148 -276 165 -297 242
-297 55 1 160 56 164 87 2 14 -4 26 -17 33 -17 9 -32 5 -82 -21 -58 -30 -64
-31 -88 -18 -18 10 -64 84 -153 249 -70 129 -127 245 -128 257 0 23 24 53 42
53 6 0 54 -14 107 -31 83 -27 107 -30 176 -27 78 4 86 7 225 79 341 178 460
245 466 262 7 22 -12 47 -35 46 -9 0 -135 -65 -281 -144z"/>
<path d="M713 1220 c-57 -33 -69 -61 -33 -80 17 -9 32 -5 81 22 51 28 59 37
57 58 -4 36 -42 36 -105 0z"/>
<path d="M740 906 c0 -28 12 -46 31 -46 21 0 24 12 9 41 -12 22 -40 26 -40 5z"/>
<path d="M1315 858 c-2 -7 -5 -26 -7 -43 -3 -28 -17 -38 -248 -162 -213 -114
-245 -135 -248 -157 -7 -55 30 -44 266 83 l222 119 0 -110 c0 -123 12 -158 60
-183 16 -8 41 -15 56 -15 36 0 222 99 242 129 9 13 33 62 54 109 39 89 39 122
-1 122 -25 0 -34 -12 -71 -102 -18 -42 -40 -83 -49 -91 -9 -8 -52 -33 -96 -55
-71 -37 -82 -40 -100 -28 -19 13 -20 24 -20 202 l0 189 -28 3 c-16 2 -29 -2
-32 -10z"/>
<path d="M796 811 c-7 -11 27 -86 45 -96 6 -4 15 -3 21 3 7 7 3 24 -13 53 -25
44 -43 57 -53 40z"/>
<path d="M874 666 c-6 -16 12 -56 26 -56 26 0 22 53 -6 64 -8 3 -17 -1 -20 -8z"/>
<path d="M258 433 c-49 -27 -61 -43 -52 -68 15 -39 144 14 144 59 0 21 -17 37
-38 36 -4 0 -28 -12 -54 -27z"/>
<path d="M1145 367 c-44 -25 -56 -54 -30 -73 15 -11 26 -9 66 12 50 25 61 48
37 72 -17 17 -27 15 -73 -11z"/>
<path d="M943 260 c-80 -45 -87 -52 -78 -80 9 -30 41 -25 123 20 72 41 86 62
60 88 -18 18 -26 15 -105 -28z"/>
<path d="M585 230 c-99 -54 -110 -62 -110 -87 0 -21 5 -29 21 -31 28 -4 238
110 242 132 4 19 -15 46 -32 45 -6 0 -60 -27 -121 -59z"/>
</g>
</svg>
